<svg width="128" height="96" viewBox="0 0 128 96" fill="none" xmlns="http://www.w3.org/2000/svg">
<path d="M0 11.283V8C0 5.87827 0.842855 3.84344 2.34315 2.34315C3.84344 0.842855 5.87827 0 8 0L120 0C122.122 0 124.157 0.842855 125.657 2.34315C127.157 3.84344 128 5.87827 128 8V11.283L64 51.283L0 11.283ZM66.12 59.393C65.4841 59.7899 64.7496 60.0003 64 60.0003C63.2504 60.0003 62.5159 59.7899 61.88 59.393L0 20.717V88C0 90.1217 0.842855 92.1566 2.34315 93.6569C3.84344 95.1571 5.87827 96 8 96H120C122.122 96 124.157 95.1571 125.657 93.6569C127.157 92.1566 128 90.1217 128 88V20.717L66.12 59.393Z" fill="#B7569A"/>
</svg>
