<svg width="100" height="100" viewBox="0 0 100 100" fill="none" xmlns="http://www.w3.org/2000/svg">
<path d="M50 0C22.3865 0 0 22.3865 0 50C0 73.6096 16.3692 93.3846 38.375 98.6269C37.2365 98.3558 36.1077 98.0519 35 97.7058V86.25C35 86.25 33.125 86.875 30.625 86.875C23.6308 86.875 20.725 80.6346 20 77.5C19.5596 75.5904 18.4096 73.7808 17.175 72.675C15.7 71.3596 15.0096 71.3558 15 70.9058C14.9808 69.9615 16.2654 70 16.875 70C20 70 22.3692 73.325 23.4692 75.0442C26.1942 79.2885 29.1192 80 30.625 80C32.5 80 34.1192 79.7192 35.2346 79.1808C35.75 75.55 37.3654 72.3154 40 70C28.275 67.6558 20 60.9308 20 50C20 44.3692 22.2596 39.1942 26.025 35.0154C25.6404 33.925 25 31.7192 25 28.125C25 25.75 25.1654 22.8346 26.25 20C26.25 20 33.3808 20.05 40.1058 26.4192C43.2096 25.5154 46.5308 25 50 25C53.4692 25 56.7904 25.5154 59.8942 26.4192C66.6192 20.05 73.75 20 73.75 20C74.8404 22.8346 75 25.75 75 28.125C75 32 74.4846 34.2596 74.1692 35.2346C77.8192 39.375 80 44.4692 80 50C80 60.9308 71.725 67.6558 60 70C63.1308 72.75 65 76.7558 65 81.25V97.7058C63.8923 98.0538 62.7654 98.3558 61.625 98.6269C83.6308 93.3846 100 73.6096 100 50C100 22.3865 77.6135 0 50 0ZM53.4865 99.8654C52.3346 99.9462 51.1731 100 50 100C51.1731 100 52.3327 99.9442 53.4865 99.8654ZM50 100C48.8269 100 47.6654 99.9462 46.5135 99.8654C47.6673 99.9442 48.8269 100 50 100ZM45.7462 99.8077C43.4058 99.6096 41.1096 99.2519 38.8731 98.7423C41.1115 99.25 43.4058 99.6096 45.7462 99.8077Z" fill="#B7569A"/>
</svg>
