<svg width="100" height="100" viewBox="0 0 100 100" fill="none" xmlns="http://www.w3.org/2000/svg">
<path d="M50.0126 0H49.9876C22.4188 0 6.56058e-05 22.425 6.56058e-05 50C-0.0170538 60.5313 3.31662 70.795 9.51882 79.3063L3.28757 97.8813L22.5063 91.7375C30.6586 97.1461 40.2293 100.021 50.0126 100C77.5813 100 100 77.5687 100 50C100 22.4313 77.5813 0 50.0126 0ZM79.1063 70.6062C77.9001 74.0125 73.1126 76.8375 69.2938 77.6625C66.6813 78.2187 63.2688 78.6625 51.7813 73.9C37.0876 67.8125 27.6251 52.8812 26.8876 51.9125C26.1813 50.9437 20.9501 44.0063 20.9501 36.8313C20.9501 29.6563 24.5938 26.1625 26.0626 24.6625C27.2688 23.4313 29.2626 22.8687 31.1751 22.8687C31.7938 22.8687 32.3501 22.9 32.8501 22.925C34.3188 22.9875 35.0563 23.075 36.0251 25.3938C37.2313 28.3 40.1688 35.475 40.5188 36.2125C40.8751 36.95 41.2313 37.95 40.7313 38.9188C40.2626 39.9188 39.8501 40.3625 39.1126 41.2125C38.3751 42.0625 37.6751 42.7125 36.9376 43.625C36.2626 44.4188 35.5001 45.2688 36.3501 46.7375C37.2001 48.175 40.1376 52.9687 44.4626 56.8187C50.0438 61.7875 54.5688 63.375 56.1876 64.05C57.3938 64.55 58.8313 64.4313 59.7126 63.4938C60.8313 62.2875 62.2126 60.2875 63.6188 58.3188C64.6188 56.9063 65.8813 56.7312 67.2063 57.2312C68.5563 57.7 75.7001 61.2312 77.1688 61.9625C78.6376 62.7 79.6063 63.05 79.9626 63.6688C80.3126 64.2875 80.3126 67.1937 79.1063 70.6062Z" fill="#B7569A"/>
</svg>
